# Blender 3.5.0
# www.blender.org
mtllib ovals.mtl
o Oval
v -0.049312 0.016471 0.004710
v -0.049056 0.018631 0.004606
v -0.048308 0.020703 0.004505
v -0.047104 0.022668 0.004410
v -0.045476 0.024506 0.004322
v -0.043458 0.026200 0.004240
v -0.041084 0.027730 0.004166
v -0.038387 0.029076 0.004101
v -0.035400 0.030220 0.004045
v -0.032158 0.031143 0.004001
v -0.028693 0.031826 0.003968
v -0.025039 0.032250 0.003947
v -0.021230 0.032395 0.003940
v -0.017422 0.032250 0.003947
v -0.013768 0.031826 0.003968
v -0.010303 0.031143 0.004001
v -0.007061 0.030220 0.004045
v -0.004074 0.029076 0.004101
v -0.001377 0.027730 0.004166
v 0.000998 0.026200 0.004240
v 0.003016 0.024506 0.004322
v 0.004643 0.022668 0.004410
v 0.005848 0.020703 0.004505
v 0.006595 0.018631 0.004606
v 0.006851 0.016471 0.004710
v 0.006595 0.014312 0.004814
v 0.005848 0.012240 0.004915
v 0.004643 0.010275 0.005010
v 0.003016 0.008436 0.005099
v 0.000998 0.006743 0.005180
v -0.001377 0.005213 0.005254
v -0.004074 0.003867 0.005319
v -0.007061 0.002723 0.005375
v -0.010303 0.001799 0.005419
v -0.013768 0.001117 0.005452
v -0.017422 0.000693 0.005473
v -0.021230 0.000547 0.005480
v -0.025039 0.000693 0.005473
v -0.028693 0.001117 0.005452
v -0.032158 0.001799 0.005419
v -0.035400 0.002723 0.005375
v -0.038387 0.003867 0.005319
v -0.041084 0.005213 0.005254
v -0.043458 0.006743 0.005180
v -0.045476 0.008436 0.005099
v -0.047104 0.010275 0.005010
v -0.048308 0.012240 0.004915
v -0.049056 0.014312 0.004814
v 0.019834 0.016471 0.004710
v 0.020090 0.018631 0.004606
v 0.020837 0.020703 0.004505
v 0.022042 0.022668 0.004410
v 0.023670 0.024506 0.004322
v 0.025687 0.026200 0.004240
v 0.028062 0.027730 0.004166
v 0.030759 0.029076 0.004101
v 0.033746 0.030220 0.004045
v 0.036988 0.031143 0.004001
v 0.040453 0.031826 0.003968
v 0.044107 0.032250 0.003947
v 0.047915 0.032395 0.003940
v 0.051724 0.032250 0.003947
v 0.055378 0.031826 0.003968
v 0.058843 0.031143 0.004001
v 0.062085 0.030220 0.004045
v 0.065072 0.029076 0.004101
v 0.067769 0.027730 0.004166
v 0.070144 0.026200 0.004240
v 0.072161 0.024506 0.004322
v 0.073789 0.022668 0.004410
v 0.074993 0.020703 0.004505
v 0.075741 0.018631 0.004606
v 0.075997 0.016471 0.004710
v 0.075741 0.014312 0.004814
v 0.074993 0.012240 0.004915
v 0.073789 0.010275 0.005010
v 0.072161 0.008436 0.005099
v 0.070144 0.006743 0.005180
v 0.067769 0.005213 0.005254
v 0.065072 0.003867 0.005319
v 0.062085 0.002723 0.005375
v 0.058843 0.001799 0.005419
v 0.055378 0.001117 0.005452
v 0.051724 0.000693 0.005473
v 0.047915 0.000547 0.005480
v 0.044107 0.000693 0.005473
v 0.040453 0.001117 0.005452
v 0.036988 0.001799 0.005419
v 0.033746 0.002723 0.005375
v 0.030759 0.003867 0.005319
v 0.028062 0.005213 0.005254
v 0.025687 0.006743 0.005180
v 0.023670 0.008436 0.005099
v 0.022042 0.010275 0.005010
v 0.020837 0.012240 0.004915
v 0.020090 0.014312 0.004814
v -0.049312 0.015988 -0.005278
v -0.049056 0.018148 -0.005383
v -0.048308 0.020220 -0.005483
v -0.047104 0.022185 -0.005578
v -0.045476 0.024024 -0.005667
v -0.043458 0.025717 -0.005749
v -0.041084 0.027247 -0.005823
v -0.038387 0.028593 -0.005888
v -0.035400 0.029737 -0.005943
v -0.032158 0.030660 -0.005988
v -0.028693 0.031343 -0.006021
v -0.025039 0.031767 -0.006041
v -0.021230 0.031912 -0.006048
v -0.017422 0.031767 -0.006041
v -0.013768 0.031343 -0.006021
v -0.010303 0.030660 -0.005988
v -0.007061 0.029737 -0.005943
v -0.004074 0.028593 -0.005888
v -0.001377 0.027247 -0.005823
v 0.000998 0.025717 -0.005749
v 0.003016 0.024024 -0.005667
v 0.004643 0.022185 -0.005578
v 0.005848 0.020220 -0.005483
v 0.006595 0.018148 -0.005383
v 0.006851 0.015988 -0.005278
v 0.006595 0.013829 -0.005174
v 0.005848 0.011757 -0.005074
v 0.004643 0.009792 -0.004979
v 0.003016 0.007953 -0.004890
v 0.000998 0.006260 -0.004808
v -0.001377 0.004730 -0.004734
v -0.004074 0.003384 -0.004669
v -0.007061 0.002240 -0.004614
v -0.010303 0.001317 -0.004569
v -0.013768 0.000634 -0.004536
v -0.017422 0.000210 -0.004515
v -0.021230 0.000065 -0.004508
v -0.025039 0.000210 -0.004515
v -0.028693 0.000634 -0.004536
v -0.032158 0.001317 -0.004569
v -0.035400 0.002240 -0.004614
v -0.038387 0.003384 -0.004669
v -0.041084 0.004730 -0.004734
v -0.043458 0.006260 -0.004808
v -0.045476 0.007953 -0.004890
v -0.047104 0.009792 -0.004979
v -0.048308 0.011757 -0.005074
v -0.049056 0.013829 -0.005174
v 0.019834 0.015988 -0.005278
v 0.020090 0.018148 -0.005383
v 0.020837 0.020220 -0.005483
v 0.022042 0.022185 -0.005578
v 0.023670 0.024024 -0.005667
v 0.025687 0.025717 -0.005749
v 0.028062 0.027247 -0.005823
v 0.030759 0.028593 -0.005888
v 0.033746 0.029737 -0.005943
v 0.036988 0.030660 -0.005988
v 0.040453 0.031343 -0.006021
v 0.044107 0.031767 -0.006041
v 0.047915 0.031912 -0.006048
v 0.051724 0.031767 -0.006041
v 0.055378 0.031343 -0.006021
v 0.058843 0.030660 -0.005988
v 0.062085 0.029737 -0.005943
v 0.065072 0.028593 -0.005888
v 0.067769 0.027247 -0.005823
v 0.070144 0.025717 -0.005749
v 0.072161 0.024024 -0.005667
v 0.073789 0.022185 -0.005578
v 0.074993 0.020220 -0.005483
v 0.075741 0.018148 -0.005383
v 0.075997 0.015988 -0.005278
v 0.075741 0.013829 -0.005174
v 0.074993 0.011757 -0.005074
v 0.073789 0.009792 -0.004979
v 0.072161 0.007953 -0.004890
v 0.070144 0.006260 -0.004808
v 0.067769 0.004730 -0.004734
v 0.065072 0.003384 -0.004669
v 0.062085 0.002240 -0.004614
v 0.058843 0.001317 -0.004569
v 0.055378 0.000634 -0.004536
v 0.051724 0.000210 -0.004515
v 0.047915 0.000065 -0.004508
v 0.044107 0.000210 -0.004515
v 0.040453 0.000634 -0.004536
v 0.036988 0.001317 -0.004569
v 0.033746 0.002240 -0.004614
v 0.030759 0.003384 -0.004669
v 0.028062 0.004730 -0.004734
v 0.025687 0.006260 -0.004808
v 0.023670 0.007953 -0.004890
v 0.022042 0.009792 -0.004979
v 0.020837 0.011757 -0.005074
v 0.020090 0.013829 -0.005174
vn -0.0000 0.0483 0.9988
vn -0.0000 -0.0483 -0.9988
vn -0.0382 0.9981 -0.0483
vn 0.0382 0.9981 -0.0483
vn -0.1153 0.9922 -0.0480
vn 0.1153 0.9922 -0.0480
vn -0.1936 0.9799 -0.0474
vn 0.1936 0.9799 -0.0474
vn -0.2741 0.9606 -0.0464
vn 0.2741 0.9606 -0.0464
vn -0.3581 0.9326 -0.0451
vn 0.3581 0.9326 -0.0451
vn -0.4470 0.8935 -0.0432
vn 0.4470 0.8935 -0.0432
vn -0.5420 0.8394 -0.0406
vn 0.5420 0.8394 -0.0406
vn -0.6433 0.7647 -0.0370
vn 0.6433 0.7647 -0.0370
vn -0.7491 0.6617 -0.0320
vn 0.7491 0.6617 -0.0320
vn 0.8529 0.5215 -0.0252
vn -0.8529 0.5215 -0.0252
vn 0.9408 0.3385 -0.0164
vn -0.9408 0.3385 -0.0164
vn 0.9930 0.1177 -0.0057
vn -0.9930 0.1177 -0.0057
vn -0.9930 -0.1177 0.0057
vn 0.9930 -0.1177 0.0057
vn -0.9408 -0.3385 0.0164
vn 0.9408 -0.3385 0.0164
vn -0.8529 -0.5215 0.0252
vn 0.8529 -0.5215 0.0252
vn -0.7491 -0.6617 0.0320
vn 0.7491 -0.6617 0.0320
vn -0.6433 -0.7647 0.0370
vn 0.6433 -0.7647 0.0370
vn -0.5420 -0.8394 0.0406
vn 0.5420 -0.8394 0.0406
vn -0.4470 -0.8935 0.0432
vn 0.4470 -0.8935 0.0432
vn -0.3581 -0.9326 0.0451
vn 0.3581 -0.9326 0.0451
vn -0.2741 -0.9606 0.0464
vn 0.2741 -0.9606 0.0464
vn -0.1936 -0.9799 0.0474
vn 0.1936 -0.9799 0.0474
vn -0.1153 -0.9922 0.0480
vn 0.1153 -0.9922 0.0480
vn -0.0382 -0.9981 0.0483
vn 0.0382 -0.9981 0.0483
vt 0.000000 0.000000
vt 0.021277 0.000000
vt 0.042553 0.000000
vt 0.063830 0.000000
vt 0.085106 0.000000
vt 0.106383 0.000000
vt 0.127660 0.000000
vt 0.148936 0.000000
vt 0.170213 0.000000
vt 0.191489 0.000000
vt 0.212766 0.000000
vt 0.234043 0.000000
vt 0.255319 0.000000
vt 0.276596 0.000000
vt 0.297872 0.000000
vt 0.319149 0.000000
vt 0.340426 0.000000
vt 0.361702 0.000000
vt 0.382979 0.000000
vt 0.404255 0.000000
vt 0.425532 0.000000
vt 0.446809 0.000000
vt 0.468085 0.000000
vt 0.489362 0.000000
vt 0.510638 0.000000
vt 0.531915 0.000000
vt 0.553191 0.000000
vt 0.574468 0.000000
vt 0.595745 0.000000
vt 0.617021 0.000000
vt 0.638298 0.000000
vt 0.659574 0.000000
vt 0.680851 0.000000
vt 0.702128 0.000000
vt 0.723404 0.000000
vt 0.744681 0.000000
vt 0.765957 0.000000
vt 0.787234 0.000000
vt 0.808511 0.000000
vt 0.829787 0.000000
vt 0.851064 0.000000
vt 0.872340 0.000000
vt 0.893617 0.000000
vt 0.914894 0.000000
vt 0.936170 0.000000
vt 0.957447 0.000000
vt 0.978723 0.000000
vt 1.000000 0.000000
vt 0.000000 0.000000
vt 0.021277 0.000000
vt 0.042553 0.000000
vt 0.063830 0.000000
vt 0.085106 0.000000
vt 0.106383 0.000000
vt 0.127660 0.000000
vt 0.148936 0.000000
vt 0.170213 0.000000
vt 0.191489 0.000000
vt 0.212766 0.000000
vt 0.234043 0.000000
vt 0.255319 0.000000
vt 0.276596 0.000000
vt 0.297872 0.000000
vt 0.319149 0.000000
vt 0.340426 0.000000
vt 0.361702 0.000000
vt 0.382979 0.000000
vt 0.404255 0.000000
vt 0.425532 0.000000
vt 0.446809 0.000000
vt 0.468085 0.000000
vt 0.489362 0.000000
vt 0.510638 0.000000
vt 0.531915 0.000000
vt 0.553191 0.000000
vt 0.574468 0.000000
vt 0.595745 0.000000
vt 0.617021 0.000000
vt 0.638298 0.000000
vt 0.659574 0.000000
vt 0.680851 0.000000
vt 0.702128 0.000000
vt 0.723404 0.000000
vt 0.744681 0.000000
vt 0.765957 0.000000
vt 0.787234 0.000000
vt 0.808511 0.000000
vt 0.829787 0.000000
vt 0.851064 0.000000
vt 0.872340 0.000000
vt 0.893617 0.000000
vt 0.914894 0.000000
vt 0.936170 0.000000
vt 0.957447 0.000000
vt 0.978723 0.000000
vt 1.000000 0.000000
vt 0.000000 0.000000
vt 0.021277 0.000000
vt 0.042553 0.000000
vt 0.063830 0.000000
vt 0.085106 0.000000
vt 0.106383 0.000000
vt 0.127660 0.000000
vt 0.148936 0.000000
vt 0.170213 0.000000
vt 0.191489 0.000000
vt 0.212766 0.000000
vt 0.234043 0.000000
vt 0.255319 0.000000
vt 0.276596 0.000000
vt 0.297872 0.000000
vt 0.319149 0.000000
vt 0.340426 0.000000
vt 0.361702 0.000000
vt 0.382979 0.000000
vt 0.404255 0.000000
vt 0.425532 0.000000
vt 0.446809 0.000000
vt 0.468085 0.000000
vt 0.489362 0.000000
vt 0.510638 0.000000
vt 0.531915 0.000000
vt 0.553191 0.000000
vt 0.574468 0.000000
vt 0.595745 0.000000
vt 0.617021 0.000000
vt 0.638298 0.000000
vt 0.659574 0.000000
vt 0.680851 0.000000
vt 0.702128 0.000000
vt 0.723404 0.000000
vt 0.744681 0.000000
vt 0.765957 0.000000
vt 0.787234 0.000000
vt 0.808511 0.000000
vt 0.829787 0.000000
vt 0.851064 0.000000
vt 0.872340 0.000000
vt 0.893617 0.000000
vt 0.914894 0.000000
vt 0.936170 0.000000
vt 0.957447 0.000000
vt 0.978723 0.000000
vt 1.000000 0.000000
vt 0.000000 0.000000
vt 0.021277 0.000000
vt 0.042553 0.000000
vt 0.063830 0.000000
vt 0.085106 0.000000
vt 0.106383 0.000000
vt 0.127660 0.000000
vt 0.148936 0.000000
vt 0.170213 0.000000
vt 0.191489 0.000000
vt 0.212766 0.000000
vt 0.234043 0.000000
vt 0.255319 0.000000
vt 0.276596 0.000000
vt 0.297872 0.000000
vt 0.319149 0.000000
vt 0.340426 0.000000
vt 0.361702 0.000000
vt 0.382979 0.000000
vt 0.404255 0.000000
vt 0.425532 0.000000
vt 0.446809 0.000000
vt 0.468085 0.000000
vt 0.489362 0.000000
vt 0.510638 0.000000
vt 0.531915 0.000000
vt 0.553191 0.000000
vt 0.574468 0.000000
vt 0.595745 0.000000
vt 0.617021 0.000000
vt 0.638298 0.000000
vt 0.659574 0.000000
vt 0.680851 0.000000
vt 0.702128 0.000000
vt 0.723404 0.000000
vt 0.744681 0.000000
vt 0.765957 0.000000
vt 0.787234 0.000000
vt 0.808511 0.000000
vt 0.829787 0.000000
vt 0.851064 0.000000
vt 0.872340 0.000000
vt 0.893617 0.000000
vt 0.914894 0.000000
vt 0.936170 0.000000
vt 0.957447 0.000000
vt 0.978723 0.000000
vt 1.000000 0.000000
s 0
usemtl SVGMat.001
f 12/12/1 14/14/1 13/13/1
f 11/11/1 14/14/1 12/12/1
f 11/11/1 15/15/1 14/14/1
f 10/10/1 15/15/1 11/11/1
f 10/10/1 16/16/1 15/15/1
f 9/9/1 16/16/1 10/10/1
f 9/9/1 17/17/1 16/16/1
f 8/8/1 17/17/1 9/9/1
f 8/8/1 18/18/1 17/17/1
f 7/7/1 18/18/1 8/8/1
f 7/7/1 19/19/1 18/18/1
f 6/6/1 19/19/1 7/7/1
f 6/6/1 20/20/1 19/19/1
f 5/5/1 20/20/1 6/6/1
f 5/5/1 21/21/1 20/20/1
f 4/4/1 21/21/1 5/5/1
f 4/4/1 22/22/1 21/21/1
f 4/4/1 23/23/1 22/22/1
f 3/3/1 23/23/1 4/4/1
f 3/3/1 24/24/1 23/23/1
f 2/2/1 24/24/1 3/3/1
f 2/2/1 25/25/1 24/24/1
f 1/1/1 25/25/1 2/2/1
f 48/48/1 25/25/1 1/1/1
f 48/48/1 26/26/1 25/25/1
f 47/47/1 26/26/1 48/48/1
f 47/47/1 27/27/1 26/26/1
f 46/46/1 27/27/1 47/47/1
f 46/46/1 28/28/1 27/27/1
f 45/45/1 28/28/1 46/46/1
f 45/45/1 29/29/1 28/28/1
f 44/44/1 29/29/1 45/45/1
f 44/44/1 30/30/1 29/29/1
f 43/43/1 30/30/1 44/44/1
f 43/43/1 31/31/1 30/30/1
f 42/42/1 31/31/1 43/43/1
f 42/42/1 32/32/1 31/31/1
f 41/41/1 32/32/1 42/42/1
f 41/41/1 33/33/1 32/32/1
f 40/40/1 33/33/1 41/41/1
f 40/40/1 34/34/1 33/33/1
f 39/39/1 34/34/1 40/40/1
f 39/39/1 35/35/1 34/34/1
f 38/38/1 35/35/1 39/39/1
f 38/38/1 36/36/1 35/35/1
f 37/37/1 36/36/1 38/38/1
f 108/108/2 109/109/2 110/110/2
f 107/107/2 108/108/2 110/110/2
f 107/107/2 110/110/2 111/111/2
f 106/106/2 107/107/2 111/111/2
f 106/106/2 111/111/2 112/112/2
f 105/105/2 106/106/2 112/112/2
f 105/105/2 112/112/2 113/113/2
f 104/104/2 105/105/2 113/113/2
f 104/104/2 113/113/2 114/114/2
f 103/103/2 104/104/2 114/114/2
f 103/103/2 114/114/2 115/115/2
f 102/102/2 103/103/2 115/115/2
f 102/102/2 115/115/2 116/116/2
f 101/101/2 102/102/2 116/116/2
f 101/101/2 116/116/2 117/117/2
f 100/100/2 101/101/2 117/117/2
f 100/100/2 117/117/2 118/118/2
f 100/100/2 118/118/2 119/119/2
f 99/99/2 100/100/2 119/119/2
f 99/99/2 119/119/2 120/120/2
f 98/98/2 99/99/2 120/120/2
f 98/98/2 120/120/2 121/121/2
f 97/97/2 98/98/2 121/121/2
f 144/144/2 97/97/2 121/121/2
f 144/144/2 121/121/2 122/122/2
f 143/143/2 144/144/2 122/122/2
f 143/143/2 122/122/2 123/123/2
f 142/142/2 143/143/2 123/123/2
f 142/142/2 123/123/2 124/124/2
f 141/141/2 142/142/2 124/124/2
f 141/141/2 124/124/2 125/125/2
f 140/140/2 141/141/2 125/125/2
f 140/140/2 125/125/2 126/126/2
f 139/139/2 140/140/2 126/126/2
f 139/139/2 126/126/2 127/127/2
f 138/138/2 139/139/2 127/127/2
f 138/138/2 127/127/2 128/128/2
f 137/137/2 138/138/2 128/128/2
f 137/137/2 128/128/2 129/129/2
f 136/136/2 137/137/2 129/129/2
f 136/136/2 129/129/2 130/130/2
f 135/135/2 136/136/2 130/130/2
f 135/135/2 130/130/2 131/131/2
f 134/134/2 135/135/2 131/131/2
f 134/134/2 131/131/2 132/132/2
f 133/133/2 134/134/2 132/132/2
f 12/12/3 13/13/3 109/109/3 108/108/3
f 13/13/4 14/14/4 110/110/4 109/109/4
f 11/11/5 12/12/5 108/108/5 107/107/5
f 14/14/6 15/15/6 111/111/6 110/110/6
f 10/10/7 11/11/7 107/107/7 106/106/7
f 15/15/8 16/16/8 112/112/8 111/111/8
f 9/9/9 10/10/9 106/106/9 105/105/9
f 16/16/10 17/17/10 113/113/10 112/112/10
f 8/8/11 9/9/11 105/105/11 104/104/11
f 17/17/12 18/18/12 114/114/12 113/113/12
f 7/7/13 8/8/13 104/104/13 103/103/13
f 18/18/14 19/19/14 115/115/14 114/114/14
f 6/6/15 7/7/15 103/103/15 102/102/15
f 19/19/16 20/20/16 116/116/16 115/115/16
f 5/5/17 6/6/17 102/102/17 101/101/17
f 20/20/18 21/21/18 117/117/18 116/116/18
f 4/4/19 5/5/19 101/101/19 100/100/19
f 21/21/20 22/22/20 118/118/20 117/117/20
f 22/22/21 23/23/21 119/119/21 118/118/21
f 3/3/22 4/4/22 100/100/22 99/99/22
f 23/23/23 24/24/23 120/120/23 119/119/23
f 2/2/24 3/3/24 99/99/24 98/98/24
f 24/24/25 25/25/25 121/121/25 120/120/25
f 1/1/26 2/2/26 98/98/26 97/97/26
f 48/48/27 1/1/27 97/97/27 144/144/27
f 25/25/28 26/26/28 122/122/28 121/121/28
f 47/47/29 48/48/29 144/144/29 143/143/29
f 26/26/30 27/27/30 123/123/30 122/122/30
f 46/46/31 47/47/31 143/143/31 142/142/31
f 27/27/32 28/28/32 124/124/32 123/123/32
f 45/45/33 46/46/33 142/142/33 141/141/33
f 28/28/34 29/29/34 125/125/34 124/124/34
f 44/44/35 45/45/35 141/141/35 140/140/35
f 29/29/36 30/30/36 126/126/36 125/125/36
f 43/43/37 44/44/37 140/140/37 139/139/37
f 30/30/38 31/31/38 127/127/38 126/126/38
f 42/42/39 43/43/39 139/139/39 138/138/39
f 31/31/40 32/32/40 128/128/40 127/127/40
f 41/41/41 42/42/41 138/138/41 137/137/41
f 32/32/42 33/33/42 129/129/42 128/128/42
f 40/40/43 41/41/43 137/137/43 136/136/43
f 33/33/44 34/34/44 130/130/44 129/129/44
f 39/39/45 40/40/45 136/136/45 135/135/45
f 34/34/46 35/35/46 131/131/46 130/130/46
f 38/38/47 39/39/47 135/135/47 134/134/47
f 35/35/48 36/36/48 132/132/48 131/131/48
f 37/37/49 38/38/49 134/134/49 133/133/49
f 36/36/50 37/37/50 133/133/50 132/132/50
usemtl SVGMat.002
f 60/60/1 62/62/1 61/61/1
f 59/59/1 62/62/1 60/60/1
f 59/59/1 63/63/1 62/62/1
f 58/58/1 63/63/1 59/59/1
f 58/58/1 64/64/1 63/63/1
f 57/57/1 64/64/1 58/58/1
f 57/57/1 65/65/1 64/64/1
f 56/56/1 65/65/1 57/57/1
f 56/56/1 66/66/1 65/65/1
f 55/55/1 66/66/1 56/56/1
f 55/55/1 67/67/1 66/66/1
f 54/54/1 67/67/1 55/55/1
f 54/54/1 68/68/1 67/67/1
f 53/53/1 68/68/1 54/54/1
f 53/53/1 69/69/1 68/68/1
f 52/52/1 69/69/1 53/53/1
f 52/52/1 70/70/1 69/69/1
f 52/52/1 71/71/1 70/70/1
f 51/51/1 71/71/1 52/52/1
f 51/51/1 72/72/1 71/71/1
f 50/50/1 72/72/1 51/51/1
f 50/50/1 73/73/1 72/72/1
f 49/49/1 73/73/1 50/50/1
f 96/96/1 73/73/1 49/49/1
f 96/96/1 74/74/1 73/73/1
f 95/95/1 74/74/1 96/96/1
f 95/95/1 75/75/1 74/74/1
f 94/94/1 75/75/1 95/95/1
f 94/94/1 76/76/1 75/75/1
f 93/93/1 76/76/1 94/94/1
f 93/93/1 77/77/1 76/76/1
f 92/92/1 77/77/1 93/93/1
f 92/92/1 78/78/1 77/77/1
f 91/91/1 78/78/1 92/92/1
f 91/91/1 79/79/1 78/78/1
f 90/90/1 79/79/1 91/91/1
f 90/90/1 80/80/1 79/79/1
f 89/89/1 80/80/1 90/90/1
f 89/89/1 81/81/1 80/80/1
f 88/88/1 81/81/1 89/89/1
f 88/88/1 82/82/1 81/81/1
f 87/87/1 82/82/1 88/88/1
f 87/87/1 83/83/1 82/82/1
f 86/86/1 83/83/1 87/87/1
f 86/86/1 84/84/1 83/83/1
f 85/85/1 84/84/1 86/86/1
f 156/156/2 157/157/2 158/158/2
f 155/155/2 156/156/2 158/158/2
f 155/155/2 158/158/2 159/159/2
f 154/154/2 155/155/2 159/159/2
f 154/154/2 159/159/2 160/160/2
f 153/153/2 154/154/2 160/160/2
f 153/153/2 160/160/2 161/161/2
f 152/152/2 153/153/2 161/161/2
f 152/152/2 161/161/2 162/162/2
f 151/151/2 152/152/2 162/162/2
f 151/151/2 162/162/2 163/163/2
f 150/150/2 151/151/2 163/163/2
f 150/150/2 163/163/2 164/164/2
f 149/149/2 150/150/2 164/164/2
f 149/149/2 164/164/2 165/165/2
f 148/148/2 149/149/2 165/165/2
f 148/148/2 165/165/2 166/166/2
f 148/148/2 166/166/2 167/167/2
f 147/147/2 148/148/2 167/167/2
f 147/147/2 167/167/2 168/168/2
f 146/146/2 147/147/2 168/168/2
f 146/146/2 168/168/2 169/169/2
f 145/145/2 146/146/2 169/169/2
f 192/192/2 145/145/2 169/169/2
f 192/192/2 169/169/2 170/170/2
f 191/191/2 192/192/2 170/170/2
f 191/191/2 170/170/2 171/171/2
f 190/190/2 191/191/2 171/171/2
f 190/190/2 171/171/2 172/172/2
f 189/189/2 190/190/2 172/172/2
f 189/189/2 172/172/2 173/173/2
f 188/188/2 189/189/2 173/173/2
f 188/188/2 173/173/2 174/174/2
f 187/187/2 188/188/2 174/174/2
f 187/187/2 174/174/2 175/175/2
f 186/186/2 187/187/2 175/175/2
f 186/186/2 175/175/2 176/176/2
f 185/185/2 186/186/2 176/176/2
f 185/185/2 176/176/2 177/177/2
f 184/184/2 185/185/2 177/177/2
f 184/184/2 177/177/2 178/178/2
f 183/183/2 184/184/2 178/178/2
f 183/183/2 178/178/2 179/179/2
f 182/182/2 183/183/2 179/179/2
f 182/182/2 179/179/2 180/180/2
f 181/181/2 182/182/2 180/180/2
f 60/60/3 61/61/3 157/157/3 156/156/3
f 61/61/4 62/62/4 158/158/4 157/157/4
f 59/59/5 60/60/5 156/156/5 155/155/5
f 62/62/6 63/63/6 159/159/6 158/158/6
f 58/58/7 59/59/7 155/155/7 154/154/7
f 63/63/8 64/64/8 160/160/8 159/159/8
f 57/57/9 58/58/9 154/154/9 153/153/9
f 64/64/10 65/65/10 161/161/10 160/160/10
f 56/56/11 57/57/11 153/153/11 152/152/11
f 65/65/12 66/66/12 162/162/12 161/161/12
f 55/55/13 56/56/13 152/152/13 151/151/13
f 66/66/14 67/67/14 163/163/14 162/162/14
f 54/54/15 55/55/15 151/151/15 150/150/15
f 67/67/16 68/68/16 164/164/16 163/163/16
f 53/53/17 54/54/17 150/150/17 149/149/17
f 68/68/18 69/69/18 165/165/18 164/164/18
f 52/52/19 53/53/19 149/149/19 148/148/19
f 69/69/20 70/70/20 166/166/20 165/165/20
f 70/70/21 71/71/21 167/167/21 166/166/21
f 51/51/22 52/52/22 148/148/22 147/147/22
f 71/71/23 72/72/23 168/168/23 167/167/23
f 50/50/24 51/51/24 147/147/24 146/146/24
f 72/72/25 73/73/25 169/169/25 168/168/25
f 49/49/26 50/50/26 146/146/26 145/145/26
f 96/96/27 49/49/27 145/145/27 192/192/27
f 73/73/28 74/74/28 170/170/28 169/169/28
f 95/95/29 96/96/29 192/192/29 191/191/29
f 74/74/30 75/75/30 171/171/30 170/170/30
f 94/94/31 95/95/31 191/191/31 190/190/31
f 75/75/32 76/76/32 172/172/32 171/171/32
f 93/93/33 94/94/33 190/190/33 189/189/33
f 76/76/34 77/77/34 173/173/34 172/172/34
f 92/92/35 93/93/35 189/189/35 188/188/35
f 77/77/36 78/78/36 174/174/36 173/173/36
f 91/91/37 92/92/37 188/188/37 187/187/37
f 78/78/38 79/79/38 175/175/38 174/174/38
f 90/90/39 91/91/39 187/187/39 186/186/39
f 79/79/40 80/80/40 176/176/40 175/175/40
f 89/89/41 90/90/41 186/186/41 185/185/41
f 80/80/42 81/81/42 177/177/42 176/176/42
f 88/88/43 89/89/43 185/185/43 184/184/43
f 81/81/44 82/82/44 178/178/44 177/177/44
f 87/87/45 88/88/45 184/184/45 183/183/45
f 82/82/46 83/83/46 179/179/46 178/178/46
f 86/86/47 87/87/47 183/183/47 182/182/47
f 83/83/48 84/84/48 180/180/48 179/179/48
f 85/85/49 86/86/49 182/182/49 181/181/49
f 84/84/50 85/85/50 181/181/50 180/180/50
